<svg width="138" height="84" viewBox="0 0 138 84" fill="none" xmlns="http://www.w3.org/2000/svg">
<path d="M8.05032 46.2949H27.7841C27.7841 46.2949 24.6712 27.0516 41.0517 11.9277C47.4273 6.41551 55.3319 1.22964 69.5194 0.982178C93.9478 0.982178 104.793 20.4511 104.793 20.4511H137.794L130.81 38.457L110.957 38.4789C110.957 38.4789 113.121 52.8933 103.511 66.3595C97.8482 74.5062 86.6896 83.3318 70.2143 83.9012C45.2698 84.1815 33.8752 64.325 33.8752 64.325L0.986328 64.3469L8.05032 46.2949Z" fill="red"/>
<path d="M120.036 32.5575L122.397 26.4453H84.0102V39.3596H80.2642V26.4475H74.1444V39.3618H67.5393V26.4475H61.4482V39.3618H57.6316V26.4475H43.4397C43.4397 26.4475 42.2175 26.4475 40.7747 27.8578C38.9171 29.7325 38.8664 31.4801 38.8664 31.4801V39.3749H35.9367V45.4127H38.8664V52.2782H18.6583L16.375 58.3248H44.9685V45.382H51.5273V58.3248H57.6868V45.4214H61.446V58.3248H67.5658V45.4214H74.1246V58.3248H80.2841V45.4214H83.9639L84.0036 58.3642C84.0036 58.3642 97.8051 58.3642 97.9573 58.3642C98.3103 58.3642 99.7751 58.2393 101.412 56.3888C102.886 54.6303 102.8 53.4543 102.8 53.4543C102.8 53.4543 102.802 44.3812 102.802 44.241C102.806 43.5578 102.279 42.2306 101.097 41.0108C100.04 39.9202 98.9324 39.3683 97.8999 39.3618C97.8029 39.3618 90.0814 39.3618 90.0814 39.3618V32.5575H120.036ZM51.6089 39.3924H44.9685V32.0254H51.6089V39.3924ZM90.1587 45.4455H96.6822V52.3461H90.1587V45.4455Z" fill="white"/>
</svg>
